<svg width="16" height="16" viewBox="0 0 16 16" fill="none" xmlns="http://www.w3.org/2000/svg">
<path fill-rule="evenodd" clip-rule="evenodd" d="M8.71268 2.30743C8.44268 2.33743 8.24735 2.62277 8.15001 2.86277C8.14657 2.87177 8.14044 2.87948 8.13244 2.88485C8.12444 2.89022 8.11498 2.89299 8.10535 2.89277L7.48668 2.8701C7.47443 2.87034 7.46228 2.86775 7.45119 2.86255C7.44009 2.85735 7.43034 2.84967 7.42268 2.8401C7.17548 2.53818 6.82035 2.34448 6.43268 2.3001C5.39854 2.26503 4.36323 2.29019 3.33201 2.37543C3.22735 2.37877 3.12001 2.39543 3.00668 2.4121L2.97935 2.41677C2.78322 2.44966 2.59885 2.53243 2.44393 2.65711C2.28901 2.78179 2.16874 2.94421 2.09468 3.12877C2.05671 3.21486 2.0374 3.30801 2.03801 3.4021C2.00929 4.07681 1.99684 4.75212 2.00068 5.42743C1.9989 5.64166 2.02135 5.85277 2.06801 6.06077C2.14668 6.36877 2.37201 6.56743 2.64135 6.74743C2.65668 6.75477 2.66468 6.7741 2.65335 6.7921C2.33801 7.6321 2.12801 8.57743 2.16601 9.44677C2.18801 9.97543 2.29268 10.4968 2.48068 10.9994C2.95668 12.3081 4.03668 13.0994 5.36735 13.4741C6.20735 13.7141 7.1449 13.8265 8.18001 13.8114C10.2013 13.7814 11.99 12.9268 13.2007 11.3594C13.454 11.0354 13.6633 10.6801 13.8233 10.3021C13.8789 10.1699 13.9179 10.0313 13.9393 9.88943C14.0407 9.11677 14.026 8.2881 13.812 7.53477C13.703 7.14122 13.5112 6.7755 13.2493 6.4621C13.2387 6.45077 13.2387 6.4361 13.2493 6.42877C13.4982 6.21543 13.6358 5.92166 13.662 5.54743C13.7033 5.01188 13.7333 4.51943 13.752 4.0701C13.7603 3.80719 13.7492 3.54403 13.7187 3.28277C13.6507 2.6941 13.332 2.32277 12.7133 2.2441C12.3942 2.20277 12.0653 2.18388 11.7267 2.18743C10.6667 2.20277 9.77335 2.23677 9.05335 2.27743C8.93935 2.2816 8.82565 2.29161 8.71268 2.30743ZM8.97535 2.8781C8.60001 3.07677 8.72001 4.05143 8.78735 4.38877H8.79135C8.79135 4.39055 8.79223 4.3921 8.79401 4.39343L8.79868 4.39677H8.80268L8.81001 4.39277L10.3133 2.8181C9.95676 2.7676 9.59522 2.76245 9.23735 2.80277C9.14535 2.81166 9.05801 2.83677 8.97535 2.8781ZM3.16668 3.0201C3.07053 3.02779 2.97599 3.04934 2.88601 3.0841C2.52601 3.2081 2.55201 3.93143 2.58935 4.2201L2.64201 4.61343C2.64299 4.61568 2.64456 4.61761 2.64656 4.61902C2.64856 4.62043 2.6509 4.62127 2.65335 4.62143C2.65512 4.62227 2.65705 4.6227 2.65901 4.6227C2.66097 4.6227 2.66291 4.62227 2.66468 4.62143L4.16468 3.0541C4.16678 3.05223 4.16824 3.04973 4.16884 3.04698C4.16944 3.04422 4.16915 3.04135 4.16801 3.03877C3.83576 2.99813 3.50021 2.99187 3.16668 3.0201Z" fill="#231F20"/>
<path d="M7.19389 6.09355C7.25932 5.94694 7.30483 5.79224 7.32923 5.63355C7.38923 5.27933 7.42923 4.92289 7.44923 4.56422C7.45426 4.55944 7.46095 4.55681 7.46789 4.55689H8.28123C8.28923 4.55689 8.29256 4.55689 8.29989 4.56422L8.30789 4.58289C8.32123 4.99089 8.34611 5.39844 8.38256 5.80555C8.44989 6.18422 8.66789 6.59289 9.00523 6.77289C9.10656 6.82555 9.22989 6.85955 9.37656 6.86622C9.72856 6.88889 10.0886 6.89289 10.4566 6.87822C11.1766 6.85111 11.8626 6.80355 12.5146 6.73555C12.6719 6.71689 12.8232 6.67178 12.9686 6.60022C12.9759 6.59679 12.9841 6.59565 12.992 6.59696C13 6.59827 13.0074 6.60196 13.0132 6.60755C13.3021 6.95176 13.4993 7.3634 13.5866 7.80422C13.7409 8.5131 13.7576 9.24502 13.6359 9.96022C13.612 10.0855 13.5702 10.2068 13.5119 10.3202C13.3245 10.7111 13.0876 11.0763 12.8072 11.4069C11.8427 12.5585 10.4744 13.2979 8.98256 13.4736C8.18056 13.5822 7.37389 13.5482 6.57923 13.4436C5.51456 13.3049 4.44189 12.9709 3.65456 12.2702C3.08712 11.7444 2.70342 11.0504 2.55989 10.2902C2.44272 9.76102 2.41478 9.21596 2.47723 8.67755C2.55189 8.07022 2.69056 7.48555 2.90456 6.92689C2.91211 6.91222 2.92323 6.90711 2.93789 6.91155L3.07323 6.94489C3.34256 6.98266 3.65145 7.00155 3.99989 7.00155C4.57989 6.99711 5.17723 6.97578 5.79189 6.93755C6.03923 6.91889 6.25656 6.89689 6.44789 6.85889C6.78523 6.79555 7.05923 6.40889 7.19789 6.09422L7.19389 6.09355Z" fill="#79C928"/>
<path d="M7.7373 10.3008C7.7373 10.6568 7.98864 10.9494 8.29597 10.9494C8.6033 10.9494 8.85064 10.6568 8.85064 10.3008C8.85064 9.94077 8.60397 9.6521 8.29597 9.6521C7.98797 9.6521 7.7373 9.94077 7.7373 10.3008Z" fill="#231F20"/>
</svg>
